# xmcd
#
# Track frame offsets:
#	182
#	21302
#	57732
#	78707
#	100617
#	124820
#	154195
#	183967
#
# Disc length: 2721 seconds
#
# Revision: 912345143
# Processed by: cddbd v1.5.2PL0 Copyright (c) Steve Scherf et al.
# Submitted via: EZCDAudioConverter 7.0.0.1
#
DISCID=670a9f08
DTITLE=Billy Paul - 360 Degrees of Billy Paul
DYEAR=1972
DGENRE=R&B
TTITLE0=Brown Baby
TTITLE1=I'm Just a Prisoner
TTITLE2=It's Too Late
TTITLE3=Me and Mrs. Jones
TTITLE4=Am I Black Enough for You?
TTITLE5=Let's Stay Together
TTITLE6=Your Song
TTITLE7=I'm Gonna Make It This Time
EXTD=
EXTT0=
EXTT1=
EXTT2=
EXTT3=
EXTT4=
EXTT5=
EXTT6=
EXTT7=
PLAYORDER=
